{
  "accessors": [
    {
      "bufferView": 2,
      "componentType": 5126,
      "count": 1746,
      "max": [
        1.2751340866088867,
        -0.13788357377052307,
        0.1349892020225525
      ],
      "min": [
        -0.4930471181869507,
        -0.39361485838890076,
        -0.08226635307073593
      ],
      "type": "VEC3"
    },
    {
      "bufferView": 2,
      "byteOffset": 20952,
      "componentType": 5126,
      "count": 1746,
      "max": [
        0.9985798001289368,
        0.9996068477630615,
        0.9992130994796753
      ],
      "min": [
        -0.9989349246025085,
        -0.9997473955154419,
        -0.9994879961013794
      ],
      "type": "VEC3"
    },
    {
      "bufferView": 3,
      "componentType": 5126,
      "count": 1746,
      "max": [
        0.9989199638366699,
        0.9995326399803162,
        0.9997974038124084,
        1.0
      ],
      "min": [
        -0.9994402527809143,
        -0.9997805953025818,
        -0.9997742176055908,
        1.0
      ],
      "type": "VEC4"
    },
    {
      "bufferView": 1,
      "componentType": 5126,
      "count": 1746,
      "max": [
        0.9320651292800903,
        0.9977516531944275
      ],
      "min": [
        0.0022484033834189177,
        0.0022484033834189177
      ],
      "type": "VEC2"
    },
    {
      "bufferView": 0,
      "componentType": 5125,
      "count": 6000,
      "type": "SCALAR"
    }
  ],
  "asset": {
    "extras": {
      "author": "Loïc Norgeot (https://sketchfab.com/norgeotloic)",
      "license": "CC-BY-4.0 (http://creativecommons.org/licenses/by/4.0/)",
      "source": "https://sketchfab.com/3d-models/lowpoly-stick-01-9a8ffae22f0846ba895f09d08ff97d82",
      "title": "Lowpoly stick - 01"
    },
    "generator": "Sketchfab-12.64.0",
    "version": "2.0"
  },
  "bufferViews": [
    {
      "buffer": 0,
      "byteLength": 24000,
      "name": "floatBufferViews",
      "target": 34963
    },
    {
      "buffer": 0,
      "byteLength": 13968,
      "byteOffset": 24000,
      "byteStride": 8,
      "name": "floatBufferViews",
      "target": 34962
    },
    {
      "buffer": 0,
      "byteLength": 41904,
      "byteOffset": 37968,
      "byteStride": 12,
      "name": "floatBufferViews",
      "target": 34962
    },
    {
      "buffer": 0,
      "byteLength": 27936,
      "byteOffset": 79872,
      "byteStride": 16,
      "name": "floatBufferViews",
      "target": 34962
    }
  ],
  "buffers": [
    {
      "byteLength": 107808,
      "uri": "scene.bin"
    }
  ],
  "images": [
    {
      "uri": "textures/tmp.o_material_0.002_baseColor.jpeg"
    },
    {
      "uri": "textures/tmp.o_material_0.002_normal.jpeg"
    }
  ],
  "materials": [
    {
      "doubleSided": true,
      "name": "tmp.o_material_0.002",
      "normalTexture": {
        "index": 1
      },
      "pbrMetallicRoughness": {
        "baseColorTexture": {
          "index": 0
        },
        "metallicFactor": 0.0,
        "roughnessFactor": 0.9577051495
      }
    }
  ],
  "meshes": [
    {
      "name": "tmp.o.002_tmp.o_material_0.002_0",
      "primitives": [
        {
          "attributes": {
            "NORMAL": 1,
            "POSITION": 0,
            "TANGENT": 2,
            "TEXCOORD_0": 3
          },
          "indices": 4,
          "material": 0,
          "mode": 4
        }
      ]
    }
  ],
  "nodes": [
    {
      "children": [
        1
      ],
      "matrix": [
        1.0,
        0.0,
        0.0,
        0.0,
        0.0,
        0.9975138902664185,
        -0.07046984881162621,
        0.0,
        0.0,
        0.07046984881162621,
        0.9975138902664185,
        0.0,
        0.0,
        -0.35029965639114263,
        -5.239450454711914,
        1.0
      ],
      "name": "Sketchfab_model"
    },
    {
      "children": [
        2
      ],
      "matrix": [
        1.0,
        0.0,
        0.0,
        0.0,
        0.0,
        0.0,
        1.0,
        0.0,
        0.0,
        -1.0,
        0.0,
        0.0,
        0.0,
        0.0,
        0.0,
        1.0
      ],
      "name": "d2348dfba1e74c309b5f5ccd787a6405.fbx"
    },
    {
      "children": [
        3
      ],
      "name": "RootNode"
    },
    {
      "children": [
        4
      ],
      "matrix": [
        100.0,
        0.0,
        0.0,
        0.0,
        -0.0,
        -4.371139006309477e-06,
        -99.9999999999999,
        0.0,
        0.0,
        99.9999999999999,
        -4.371139006309477e-06,
        0.0,
        -41.45039367675781,
        0.0,
        -29.382556915283203,
        1.0
      ],
      "name": "tmp.o.002"
    },
    {
      "mesh": 0,
      "name": "tmp.o.002_tmp.o_material_0.002_0"
    }
  ],
  "samplers": [
    {
      "magFilter": 9729,
      "minFilter": 9987,
      "wrapS": 10497,
      "wrapT": 10497
    }
  ],
  "scene": 0,
  "scenes": [
    {
      "name": "Sketchfab_Scene",
      "nodes": [
        0
      ]
    }
  ],
  "textures": [
    {
      "sampler": 0,
      "source": 0
    },
    {
      "sampler": 0,
      "source": 1
    }
  ]
}
